<?xml version="1.0" encoding="UTF-8"?>
<svg width="40px" height="40px" viewBox="0 0 40 40" version="1.1" xmlns="http://www.w3.org/2000/svg" xmlns:xlink="http://www.w3.org/1999/xlink">
    <title>Untitled</title>
    <defs>
        <linearGradient x1="0%" y1="0%" x2="100%" y2="100%" id="linearGradient-1">
            <stop stop-color="#87C095" offset="0%"></stop>
            <stop stop-color="#2A2F33" offset="100%"></stop>
        </linearGradient>
        <radialGradient cx="33.4892428%" cy="50.7314708%" fx="33.4892428%" fy="50.7314708%" r="52.2411261%" gradientTransform="translate(0.334892,0.507315),scale(1.000000,0.894737),rotate(35.364996),translate(-0.334892,-0.507315)" id="radialGradient-2">
            <stop stop-color="#E5A46B" offset="0%"></stop>
            <stop stop-color="#D76E6E" offset="100%"></stop>
        </radialGradient>
    </defs>
    <g id="Page-1" stroke="none" stroke-width="1" fill="none" fill-rule="evenodd">
        <rect id="Rectangle" fill-opacity="0" fill="#D8D8D8" x="0" y="0" width="40" height="40"></rect>
        <rect id="Rectangle" fill="url(#linearGradient-1)" x="1" y="1" width="38" height="38"></rect>
        <g id="papapishu_lute_1" transform="translate(5.000000, -1.000000)" stroke="#000000">
            <path d="M15.8008578,21.0919826 L12.7760516,20 C6.83264595,23.2969635 -1.3962845,29.6319756 0.202020987,34.1352478 C2.96651679,39.0184862 10.4905268,39.6027263 12.8562272,38.5687475 C18.5768072,34.6564404 17.122193,25.9516833 15.8008578,21.0919826 Z" id="path2240" fill="url(#radialGradient-2)"></path>
            <path d="M12,39 C18.5364719,33.9542567 16.0193586,25.58671 15.1418789,20 C16.7684756,22.8291214 18.5745796,25.4588451 17.8254626,30.9355734 C17.3892298,33.681538 17.0181813,36.4310791 12,39 L12,39 Z" id="path2244" fill="#AA4400"></path>
            <path d="M12,20.6470688 L18.4499811,6.36574406 L29.7775956,4.38190635 L31,4.95514318 C27.5974143,3.10739652 24.2869353,3.94053147 21.0685631,7.45454802 C17.850191,10.9685646 15.957062,15.8170486 15.3891762,22 L12,20.6470688 Z" id="path2242" fill="#D76E6E"></path>
        </g>
    </g>
</svg>